<!-- icon666.com - MILLIONS vector ICONS FREE --><svg version="1.1" id="Layer_1" xmlns="http://www.w3.org/2000/svg" xmlns:xlink="http://www.w3.org/1999/xlink" x="0px" y="0px" viewBox="0 0 512 512" style="enable-background:new 0 0 512 512;" xml:space="preserve"><g><rect x="290.05" y="67.617" transform="matrix(0.7071 -0.7071 0.7071 0.7071 27.9563 238.1975)" style="fill:#F75853;" width="22.917" height="35.472"></rect><rect x="258.342" y="94.132" transform="matrix(-0.7071 -0.7071 0.7071 -0.7071 398.6935 376.326)" style="fill:#F75853;" width="37.89" height="22.917"></rect></g><rect x="211.16" y="131.516" transform="matrix(-0.7071 -0.7071 0.7071 -0.7071 244.4753 531.3045)" style="fill:#CACACD;" width="42.23" height="167.008"></rect><rect x="229.182" y="138.973" transform="matrix(-0.7071 -0.7071 0.7071 -0.7071 251.9424 549.3115)" style="fill:#A9A8AE;" width="21.11" height="167.008"></rect><g><path style="fill:#FF7D78;" d="M193.973,251.125l5.929,22.916c1.829,7.071,8.251,11.977,15.553,11.885l23.479-0.297 c12.371-0.157,20.2,13.317,13.85,23.935c-2.113,3.532-4.233,6.608-6.112,8.487c-19.111,19.11-31.484,14.749-50.694,33.959 c-20.648,20.648-19.198,51.8-41.295,73.898c-42.745,42.745-82.952,13.403-114.827-18.472 C7.981,375.56-21.362,335.352,21.381,292.608c22.098-22.097,53.252-20.648,73.899-41.296 c26.079-26.079,21.394-42.405,49.649-70.661c0.152-0.152,0.314-0.305,0.483-0.459c11.622-10.528,29.826,1.048,25.683,16.172 l-5.086,18.562c-1.831,6.683,0.889,13.781,6.718,17.529l14.469,9.303C190.554,243.917,192.974,247.261,193.973,251.125z"></path><polygon style="fill:#FF7D78;" points="309.465,189.866 257.424,137.826 333.536,72.127 356.661,129.423 "></polygon></g><g><polygon style="fill:#F75853;" points="356.661,129.423 345.506,101.784 283.444,163.846 309.465,189.866 "></polygon><path style="fill:#F75853;" d="M195.978,352.011c19.21-19.21,31.583-14.85,50.694-33.959c1.88-1.88,4-4.955,6.113-8.488 c6.35-10.618-1.479-24.091-13.85-23.935l-23.479,0.297c-7.303,0.093-13.724-4.814-15.553-11.885l-5.478-21.175L39.855,407.435 l0.001,0.001c31.875,31.875,72.083,61.217,114.827,18.472C176.781,403.81,175.331,372.658,195.978,352.011z"></path></g><rect x="55.06" y="349.501" transform="matrix(-0.7071 -0.7071 0.7071 -0.7071 -107.8454 677.2484)" style="fill:#FBDA35;" width="62.559" height="22.917"></rect><rect x="81.76" y="360.561" transform="matrix(-0.7071 -0.7071 0.7071 -0.7071 -96.7854 703.9497)" style="fill:#F7BA35;" width="31.28" height="22.917"></rect><rect x="94.911" y="315.601" transform="matrix(-0.7071 -0.7071 0.7071 -0.7071 -25.9981 643.3502)" style="fill:#FBDA35;" width="50.665" height="22.917"></rect><g><rect x="116.55" y="324.552" transform="matrix(-0.7071 -0.7071 0.7071 -0.7071 -17.0097 664.9751)" style="fill:#F7BA35;" width="25.333" height="22.917"></rect><rect x="199.023" y="67.617" transform="matrix(-0.7071 -0.7071 0.7071 -0.7071 298.9601 294.5387)" style="fill:#F7BA35;" width="22.917" height="35.472"></rect><rect x="215.776" y="94.132" transform="matrix(0.7071 -0.7071 0.7071 0.7071 -5.9154 196.8997)" style="fill:#F7BA35;" width="37.89" height="22.917"></rect></g><rect x="258.624" y="131.513" transform="matrix(0.7071 -0.7071 0.7071 0.7071 -70.1066 260.7827)" style="fill:#CACACD;" width="42.23" height="167.008"></rect><rect x="261.714" y="138.969" transform="matrix(0.7071 -0.7071 0.7071 0.7071 -77.5667 257.6843)" style="fill:#A9A8AE;" width="21.11" height="167.008"></rect><g><path style="fill:#FBDA35;" d="M318.027,251.125l-5.929,22.916c-1.829,7.071-8.251,11.977-15.553,11.885l-23.479-0.297 c-12.371-0.157-20.2,13.317-13.85,23.935c2.113,3.532,4.233,6.608,6.112,8.487c19.111,19.11,31.484,14.749,50.694,33.959 c20.647,20.648,19.198,51.8,41.295,73.898c42.745,42.745,82.952,13.403,114.827-18.472c31.875-31.876,61.218-72.084,18.475-114.828 c-22.098-22.097-53.252-20.648-73.899-41.296c-26.079-26.079-21.394-42.405-49.649-70.661c-0.152-0.152-0.314-0.305-0.483-0.459 c-11.622-10.528-29.826,1.048-25.683,16.172l5.086,18.562c1.831,6.683-0.889,13.781-6.718,17.529l-14.469,9.303 C321.446,243.917,319.026,247.261,318.027,251.125z"></path><polygon style="fill:#FBDA35;" points="202.535,189.866 254.576,137.826 178.464,72.127 155.339,129.423 "></polygon></g><g><polygon style="fill:#F7BA35;" points="155.339,129.423 166.494,101.784 228.556,163.846 202.535,189.866 "></polygon><path style="fill:#F7BA35;" d="M316.022,352.011c-19.21-19.21-31.583-14.85-50.694-33.959c-1.88-1.88-4-4.955-6.113-8.488 c-6.35-10.618,1.479-24.091,13.85-23.935l23.479,0.297c7.303,0.093,13.724-4.814,15.553-11.885l5.478-21.175l154.569,154.569 l-0.001,0.001c-31.875,31.875-72.083,61.217-114.827,18.472C335.219,403.81,336.669,372.658,316.022,352.011z"></path></g><rect x="394.395" y="349.5" transform="matrix(0.7071 -0.7071 0.7071 0.7071 -130.559 406.7199)" style="fill:#FF7D78;" width="62.559" height="22.917"></rect><rect x="398.975" y="360.549" transform="matrix(0.7071 -0.7071 0.7071 0.7071 -141.6111 402.1355)" style="fill:#F75853;" width="31.28" height="22.917"></rect><rect x="366.439" y="315.575" transform="matrix(0.7071 -0.7071 0.7071 0.7071 -116.5002 372.8101)" style="fill:#FF7D78;" width="50.665" height="22.917"></rect><rect x="370.149" y="324.524" transform="matrix(0.7071 -0.7071 0.7071 0.7071 -125.451 369.0985)" style="fill:#F75853;" width="25.333" height="22.917"></rect></svg>